<svg width="33" height="33" viewBox="0 0 33 33" fill="none" xmlns="http://www.w3.org/2000/svg">
<path d="M28.6548 6.33867C27.9525 5.63605 27.1187 5.07868 26.2009 4.69841C25.2832 4.31813 24.2995 4.12241 23.3061 4.12241C22.3126 4.12241 21.3289 4.31813 20.4112 4.69841C19.4934 5.07868 18.6596 5.63605 17.9573 6.33867L16.4998 7.79617L15.0423 6.33867C13.6237 4.92009 11.6997 4.12314 9.69355 4.12314C7.68738 4.12314 5.76337 4.92009 4.3448 6.33867C2.92622 7.75724 2.12927 9.68125 2.12927 11.6874C2.12927 13.6936 2.92622 15.6176 4.3448 17.0362L5.8023 18.4937L16.4998 29.1912L27.1973 18.4937L28.6548 17.0362C29.3574 16.3339 29.9148 15.5 30.2951 14.5823C30.6753 13.6645 30.8711 12.6808 30.8711 11.6874C30.8711 10.694 30.6753 9.71031 30.2951 8.79255C29.9148 7.8748 29.3574 7.04096 28.6548 6.33867Z" stroke="#CF4900" stroke-width="2.75" stroke-linecap="round" stroke-linejoin="round"/>
</svg>
