<svg width="55" height="55" viewBox="0 0 55 55" fill="none" xmlns="http://www.w3.org/2000/svg">
<path d="M38.9583 4.58325H16.0417C9.7134 4.58325 4.58333 9.71332 4.58333 16.0416V38.9583C4.58333 45.2865 9.7134 50.4166 16.0417 50.4166H38.9583C45.2866 50.4166 50.4167 45.2865 50.4167 38.9583V16.0416C50.4167 9.71332 45.2866 4.58325 38.9583 4.58325Z" stroke="white" stroke-width="2" stroke-linecap="round" stroke-linejoin="round"/>
<path d="M36.6667 26.0562C36.9495 27.9634 36.6237 29.9113 35.7357 31.6227C34.8477 33.3341 33.4426 34.7219 31.7204 35.5888C29.9982 36.4556 28.0464 36.7574 26.1428 36.4511C24.2393 36.1447 22.4807 35.246 21.1173 33.8826C19.754 32.5193 18.8552 30.7607 18.5489 28.8571C18.2426 26.9535 18.5443 25.0018 19.4112 23.2796C20.278 21.5573 21.6658 20.1523 23.3773 19.2643C25.0887 18.3762 27.0365 18.0505 28.9438 18.3333C30.8892 18.6218 32.6903 19.5283 34.081 20.919C35.4717 22.3097 36.3782 24.1108 36.6667 26.0562Z" stroke="white" stroke-width="2" stroke-linecap="round" stroke-linejoin="round"/>
<path d="M40.1042 14.8958H40.1295" stroke="white" stroke-width="2" stroke-linecap="round" stroke-linejoin="round"/>
</svg>
