<svg width="37" height="37" viewBox="0 0 37 37" fill="none" xmlns="http://www.w3.org/2000/svg">
<path d="M7.49999 2L2 8.6V31.7C2 32.5752 2.38631 33.4146 3.07394 34.0335C3.76157 34.6523 4.6942 35 5.66666 35H31.3333C32.3058 35 33.2384 34.6523 33.926 34.0335C34.6137 33.4146 35 32.5752 35 31.7V8.6L29.5 2H7.49999Z" stroke="#CF4900" stroke-width="2.67241" stroke-linecap="round" stroke-linejoin="round"/>
<path d="M2 8.59995H35" stroke="#CF4900" stroke-width="2.67241" stroke-linecap="round" stroke-linejoin="round"/>
<path d="M25.8321 15.2C25.8321 16.9504 25.0594 18.6291 23.6842 19.8669C22.3089 21.1046 20.4436 21.7999 18.4987 21.7999C16.5538 21.7999 14.6886 21.1046 13.3133 19.8669C11.938 18.6291 11.1654 16.9504 11.1654 15.2" stroke="#CF4900" stroke-width="2.67241" stroke-linecap="round" stroke-linejoin="round"/>
</svg>
