<svg width="19" height="19" viewBox="0 0 19 19" fill="none" xmlns="http://www.w3.org/2000/svg">
<g clip-path="url(#clip0_26_16)">
<path d="M18.2084 2.375C17.4502 2.90975 16.6109 3.31875 15.7225 3.58625C15.2457 3.03803 14.6121 2.64946 13.9073 2.4731C13.2024 2.29675 12.4605 2.34111 11.7817 2.60019C11.1029 2.85927 10.52 3.32056 10.112 3.92169C9.70389 4.52281 9.49028 5.23476 9.50002 5.96125V6.75291C8.10877 6.78899 6.7302 6.48043 5.48707 5.85472C4.24394 5.22902 3.17485 4.30558 2.37502 3.16666C2.37502 3.16666 -0.791646 10.2917 6.33335 13.4583C4.70294 14.5651 2.76069 15.12 0.791687 15.0417C7.91669 19 16.625 15.0417 16.625 5.9375C16.6243 5.71698 16.6031 5.49701 16.5617 5.28041C17.3697 4.48359 17.9398 3.47756 18.2084 2.375Z" stroke="#CF4900" stroke-width="2" stroke-linecap="round" stroke-linejoin="round"/>
</g>
<defs>
<clipPath id="clip0_26_16">
<rect width="19" height="19" fill="white"/>
</clipPath>
</defs>
</svg>
