<svg width="55" height="55" viewBox="0 0 55 55" fill="none" xmlns="http://www.w3.org/2000/svg">
<path d="M52.7083 6.8751C50.5138 8.42306 48.084 9.60701 45.5125 10.3813C44.1323 8.79439 42.298 7.6696 40.2578 7.15909C38.2175 6.64859 36.0697 6.777 34.1048 7.52697C32.1398 8.27693 30.4527 9.61227 29.2714 11.3524C28.0901 13.0925 27.4718 15.1534 27.5 17.2563V19.548C23.4727 19.6524 19.4821 18.7593 15.8836 16.948C12.285 15.1367 9.1903 12.4636 6.87499 9.16676C6.87499 9.16676 -2.29168 29.7918 18.3333 38.9584C13.6137 42.1621 7.99139 43.7685 2.29166 43.5418C22.9167 55.0001 48.125 43.5418 48.125 17.1876C48.1229 16.5493 48.0615 15.9125 47.9417 15.2855C50.2805 12.9789 51.9311 10.0667 52.7083 6.8751Z" stroke="white" stroke-width="2" stroke-linecap="round" stroke-linejoin="round"/>
</svg>
